HIERARCHY
ROOT Hips
{
  OFFSET 55.2351 96.0074 11.6893
  CHANNELS 6 Xposition Yposition Zposition Zrotation Xrotation Yrotation
  JOINT spine
  {
    OFFSET 0 8.1325 0.467659
    CHANNELS 3 Zrotation Xrotation Yrotation
    JOINT spine1
    {
      OFFSET 0 10.3498 0
      CHANNELS 3 Zrotation Xrotation Yrotation
      JOINT spine2
      {
        OFFSET 0 9.91699 0
        CHANNELS 3 Zrotation Xrotation Yrotation
        JOINT Neck
        {
          OFFSET 0 25.461 1.2139
          CHANNELS 3 Zrotation Xrotation Yrotation
          JOINT Head
          {
            OFFSET 0 7.69245 0
            CHANNELS 3 Zrotation Xrotation Yrotation
            End Site
            {
              OFFSET 0 18.62 -6.14063
            }
          }
        }
        JOINT RightShoulder
        {
          OFFSET -4.17575 10.7096 -0.581445
          CHANNELS 3 Zrotation Xrotation Yrotation
          JOINT RightArm
          {
            OFFSET 0 14.0466 0
            CHANNELS 3 Zrotation Xrotation Yrotation
            JOINT RightArmRoll
            {
              OFFSET 0 7.09099 0
              CHANNELS 3 Zrotation Xrotation Yrotation
              JOINT RightForeArm
              {
                OFFSET 0 20.6535 0
                CHANNELS 3 Zrotation Xrotation Yrotation
                JOINT RightForeArmRoll
                {
                  OFFSET 0 7.95718 0
                  CHANNELS 3 Zrotation Xrotation Yrotation
                  JOINT RightHand
                  {
                    OFFSET 0 15.9683 0
                    CHANNELS 3 Zrotation Xrotation Yrotation
                    End Site
                    {
                      OFFSET 0 0 0
                    }
                  }
                }
              }
            }
          }
        }
        JOINT LeftShoulder
        {
          OFFSET 4.17575 10.7096 -0.581445
          CHANNELS 3 Zrotation Xrotation Yrotation
          JOINT LeftArm
          {
            OFFSET 0 14.0466 0
            CHANNELS 3 Zrotation Xrotation Yrotation
            JOINT LeftArmRoll
            {
              OFFSET 0 7.09099 0
              CHANNELS 3 Zrotation Xrotation Yrotation
              JOINT LeftForeArm
              {
                OFFSET 0 20.6535 0
                CHANNELS 3 Zrotation Xrotation Yrotation
                JOINT LeftForeArmRoll
                {
                  OFFSET 0 7.95718 0
                  CHANNELS 3 Zrotation Xrotation Yrotation
                  JOINT LeftHand
                  {
                    OFFSET 0 15.9683 0
                    CHANNELS 3 Zrotation Xrotation Yrotation
                    End Site
                    {
                      OFFSET 0 0 0
                    }
                  }
                }
              }
            }
          }
        }
      }
    }
  }
  JOINT RightUpLeg
  {
    OFFSET -7.20834 -1.32182 -1.10884
    CHANNELS 3 Zrotation Xrotation Yrotation
    JOINT RightUpLegRoll
    {
      OFFSET 0 18.7238 0
      CHANNELS 3 Zrotation Xrotation Yrotation
      JOINT RightLeg
      {
        OFFSET 0 -23.1866 0
        CHANNELS 3 Zrotation Xrotation Yrotation
        JOINT RightLegRoll
        {
          OFFSET 0 23.2624 0
          CHANNELS 3 Zrotation Xrotation Yrotation
          JOINT RightFoot
          {
            OFFSET 0 19.3621 0
            CHANNELS 3 Zrotation Xrotation Yrotation
            JOINT RightToeBase
            {
              OFFSET 0 16.1857 0
              CHANNELS 3 Zrotation Xrotation Yrotation
              End Site
              {
                OFFSET 0.00686052 7.83863 -0.903522
              }
            }
          }
        }
      }
    }
  }
  JOINT LeftUpLeg
  {
    OFFSET 7.20834 -1.32182 -1.10884
    CHANNELS 3 Zrotation Xrotation Yrotation
    JOINT LeftUpLegRoll
    {
      OFFSET 0 18.7239 0
      CHANNELS 3 Zrotation Xrotation Yrotation
      JOINT LeftLeg
      {
        OFFSET 0 23.1865 0
        CHANNELS 3 Zrotation Xrotation Yrotation
        JOINT LeftLegRoll
        {
          OFFSET 0 23.4775 0
          CHANNELS 3 Zrotation Xrotation Yrotation
          JOINT LeftFoot
          {
            OFFSET 0 19.147 0
            CHANNELS 3 Zrotation Xrotation Yrotation
            JOINT LeftToeBase
            {
              OFFSET 0 16.1857 0
              CHANNELS 3 Zrotation Xrotation Yrotation
              End Site
              {
                OFFSET -0.0307459 7.83862 -0.903522
              }
            }
          }
        }
      }
    }
  }
}
MOTION
Frames: 10
Frame Time: 0.00208333
55.1327 96.1019 8.58909 -0.51043 -3.54071 0.319621 0.506362 -1.43641 0.0505407 1.0279 1.12952 0.0605691 1.02785 2.77442 0.0433775 -0.78454 12.0008 -7.29207 2.65179 3.77281 -7.40377 61.4952 -9.01051 -5.641 108.562 20.4636 22.5921 1.00106e-006 5.87165e-007 -4.80129e-006 4.53207 0.0293789 -0.694881 -8.9391e-006 3.55545e-006 -3.04275 8.02965 -4.95141 0.697667 -63.1941 -6.65359 4.31639 -108.219 17.9833 -11.2705 -7.97209e-007 1.45827e-006 6.77979e-006 -7.34084 0.0580074 1.31828 8.6398e-006 -3.36313e-006 3.04659 -8.02922 -4.95144 -0.697683 172.125 3.20117 3.90953 -180 7.01573e-015 179.042 178.946 12.3118 179.557 -6.48256e-008 -1.62104e-006 0.106824 -18.0669 69.2533 20.5728 8.13649 25.2327 -3.48773 -172.313 0.418079 -2.70153 4.54188e-006 -4.6773e-006 -0.953567 -1.79752 -12.043 0.345329 1.49666e-006 -1.14852e-006 -0.110302 19.044 70.9283 -22.1318 -8.13663 25.2348 3.48488 
55.1367 96.1117 8.58368 -0.512024 -3.53846 0.319976 0.506471 -1.43641 0.0506135 1.02727 1.12888 0.0598012 1.02723 2.77379 0.042615 -0.801388 11.9856 -7.29207 2.67449 3.77651 -7.40665 61.4934 -9.01517 -5.64375 108.565 20.4788 22.5919 1.00106e-006 5.87165e-007 -4.80129e-006 4.52518 0.0293792 -0.695557 -8.9391e-006 3.55545e-006 -3.04276 8.02965 -4.95141 0.697667 -63.2031 -6.64914 4.31425 -108.208 17.9709 -11.2586 -7.97209e-007 1.45827e-006 6.77979e-006 -7.35188 0.058006 1.31615 8.6398e-006 -3.36313e-006 3.04659 -8.02922 -4.95144 -0.697683 172.128 3.20432 3.90679 -180 7.01573e-015 179.042 178.948 12.3106 179.556 -6.48256e-008 -1.62104e-006 0.106631 -18.063 69.2508 20.5705 8.13649 25.2327 -3.48773 -172.31 0.427457 -2.70018 4.54188e-006 -4.6773e-006 -0.953545 -1.79394 -12.0507 0.346155 1.49666e-006 -1.14852e-006 -0.110636 19.0439 70.9293 -22.1336 -8.13663 25.2348 3.48488 
55.1425 96.1104 8.58306 -0.513707 -3.53604 0.32024 0.506633 -1.43639 0.0507215 1.02673 1.12826 0.0590655 1.0267 2.77317 0.041883 -0.818832 11.9693 -7.29184 2.69796 3.78131 -7.40944 61.4912 -9.02065 -5.64697 108.569 20.4946 22.5891 1.00106e-006 5.87165e-007 -4.80129e-006 4.51979 0.0293794 -0.696417 -8.9391e-006 3.55545e-006 -3.04276 8.02965 -4.95141 0.697667 -63.212 -6.64452 4.312 -108.196 17.9583 -11.2462 -7.97209e-007 1.45827e-006 6.77979e-006 -7.3631 0.0580045 1.31402 8.6398e-006 -3.36313e-006 3.04659 -8.02922 -4.95144 -0.697683 172.131 3.2077 3.90384 -180 7.01573e-015 179.041 178.95 12.3094 179.556 -6.48256e-008 -1.62104e-006 0.106464 -18.0594 69.2484 20.5684 8.13649 25.2327 -3.48773 -172.307 0.437029 -2.69882 4.54188e-006 -4.6773e-006 -0.953527 -1.79025 -12.0584 0.347003 1.49666e-006 -1.14852e-006 -0.110988 19.044 70.9303 -22.1354 -8.13663 25.2348 3.48488 
55.1317 96.1023 8.58148 -0.515453 -3.53349 0.320442 0.506832 -1.43634 0.0508542 1.02624 1.12764 0.0583523 1.02622 2.77255 0.0411723 -0.836692 11.9524 -7.29147 2.72196 3.78687 -7.41218 61.4887 -9.0267 -5.65054 108.573 20.5107 22.5846 1.00106e-006 5.87165e-007 -4.80129e-006 4.51544 0.0293796 -0.697406 -8.9391e-006 3.55545e-006 -3.04276 8.02965 -4.95141 0.697667 -63.2208 -6.63977 4.30967 -108.184 17.9457 -11.2337 -7.97209e-007 1.45827e-006 6.77979e-006 -7.37444 0.058003 1.31189 8.6398e-006 -3.36313e-006 3.04659 -8.02922 -4.95144 -0.697683 172.135 3.21123 3.90075 -180 7.01573e-015 179.041 178.952 12.3082 179.555 -6.48256e-008 -1.62104e-006 0.106315 -18.056 69.2462 20.5663 8.13649 25.2327 -3.48773 -172.304 0.446737 -2.69745 4.54188e-006 -4.6773e-006 -0.953513 -1.7865 -12.0661 0.347867 1.49666e-006 -1.14852e-006 -0.111354 19.044 70.9313 -22.1372 -8.13663 25.2348 3.48488 
55.1359 96.1055 8.57957 -0.517234 -3.53088 0.320608 0.507053 -1.43629 0.051001 1.02579 1.12703 0.057652 1.02578 2.77194 0.0404738 -0.85479 11.9352 -7.291 2.74626 3.79288 -7.41487 61.486 -9.03308 -5.65429 108.577 20.5271 22.5792 1.00106e-006 5.87165e-007 -4.80129e-006 4.51169 0.0293798 -0.698467 -8.9391e-006 3.55545e-006 -3.04276 8.02965 -4.95141 0.697667 -63.2296 -6.63495 4.3073 -108.173 17.933 -11.2211 -7.97209e-007 1.45827e-006 6.77979e-006 -7.38586 0.0580015 1.30976 8.6398e-006 -3.36313e-006 3.04659 -8.02922 -4.95144 -0.697683 172.138 3.21486 3.89757 -180 7.01573e-015 179.041 178.954 12.307 179.555 -6.48256e-008 -1.62104e-006 0.106176 -18.0527 69.2441 20.5644 8.13649 25.2327 -3.48773 -172.301 0.456523 -2.69608 4.54188e-006 -4.6773e-006 -0.9535 -1.78271 -12.0738 0.348739 1.49666e-006 -1.14852e-006 -0.111727 19.0442 70.9322 -22.139 -8.13663 25.2348 3.48488 
55.1414 96.1216 8.58394 -0.519024 -3.52825 0.320765 0.507279 -1.43623 0.0511514 1.02535 1.12642 0.056955 1.02534 2.77133 0.0397784 -0.872947 11.9178 -7.29051 2.77064 3.79899 -7.41756 61.4833 -9.03953 -5.65809 108.582 20.5435 22.5735 1.00106e-006 5.87165e-007 -4.80129e-006 4.50809 0.02938 -0.699547 -8.9391e-006 3.55545e-006 -3.04276 8.02965 -4.95141 0.697667 -63.2383 -6.6301 4.30491 -108.161 17.9203 -11.2084 -7.97209e-007 1.45827e-006 6.77979e-006 -7.3973 0.058 1.30764 8.6398e-006 -3.36313e-006 3.04659 -8.02922 -4.95144 -0.697683 172.141 3.21851 3.89437 -180 7.01573e-015 179.041 178.956 12.3058 179.554 -6.48256e-008 -1.62104e-006 0.10604 -18.0494 69.2419 20.5624 8.13649 25.2327 -3.48773 -172.298 0.466328 -2.69471 4.54188e-006 -4.6773e-006 -0.953487 -1.77891 -12.0815 0.349615 1.49666e-006 -1.14852e-006 -0.112102 19.0443 70.9331 -22.1407 -8.13663 25.2348 3.48488 
55.1331 96.1181 8.58122 -0.520797 -3.52565 0.32094 0.507494 -1.43618 0.0512946 1.02489 1.12581 0.0562515 1.02489 2.77072 0.0390769 -0.890985 11.9006 -7.29007 2.79487 3.80488 -7.42026 61.4807 -9.04583 -5.6618 108.586 20.5599 22.5683 1.00106e-006 5.87165e-007 -4.80129e-006 4.50419 0.0293802 -0.70059 -8.9391e-006 3.55545e-006 -3.04276 8.02965 -4.95141 0.697667 -63.2471 -6.6253 4.30255 -108.149 17.9077 -11.1958 -7.97209e-007 1.45827e-006 6.77979e-006 -7.40871 0.0579985 1.30551 8.6398e-006 -3.36313e-006 3.04659 -8.02922 -4.95144 -0.697683 172.145 3.22211 3.89121 -180 7.01573e-015 179.041 178.958 12.3046 179.554 -6.48256e-008 -1.62104e-006 0.105899 -18.0461 69.2397 20.5604 8.13649 25.2327 -3.48773 -172.295 0.476094 -2.69335 4.54188e-006 -4.6773e-006 -0.953474 -1.77513 -12.0891 0.350485 1.49666e-006 -1.14852e-006 -0.112473 19.0444 70.9341 -22.1425 -8.13663 25.2348 3.48488 
55.1298 96.0947 8.581 -0.522524 -3.52314 0.32116 0.507683 -1.43614 0.0514203 1.02439 1.12519 0.0555319 1.02439 2.77011 0.0383601 -0.908725 11.8839 -7.28974 2.81872 3.81023 -7.42301 61.4782 -9.05171 -5.66526 108.59 20.5759 22.5643 1.00106e-006 5.87165e-007 -4.80129e-006 4.49954 0.0293804 -0.701542 -8.9391e-006 3.55545e-006 -3.04276 8.02965 -4.95141 0.697667 -63.2559 -6.62059 4.30024 -108.138 17.8951 -11.1834 -7.97209e-007 1.45827e-006 6.77979e-006 -7.42002 0.057997 1.30338 8.6398e-006 -3.36313e-006 3.04659 -8.02922 -4.95144 -0.697683 172.148 3.2256 3.88815 -180 7.01573e-015 179.04 178.96 12.3033 179.553 -6.48256e-008 -1.62104e-006 0.105745 -18.0426 69.2374 20.5583 8.13649 25.2327 -3.48773 -172.292 0.485764 -2.69198 4.54188e-006 -4.6773e-006 -0.953459 -1.77139 -12.0968 0.351345 1.49666e-006 -1.14852e-006 -0.112835 19.0445 70.935 -22.1443 -8.13663 25.2348 3.48488 
55.1342 96.1023 8.57986 -0.524181 -3.52077 0.321452 0.50783 -1.43612 0.0515177 1.02382 1.12456 0.0547865 1.02383 2.76948 0.037619 -0.925989 11.8679 -7.28958 2.84196 3.8147 -7.42583 61.4761 -9.05695 -5.66835 108.594 20.5915 22.5623 1.00106e-006 5.87165e-007 -4.80129e-006 4.4937 0.0293807 -0.702347 -8.9391e-006 3.55545e-006 -3.04276 8.02965 -4.95141 0.697667 -63.2649 -6.61602 4.29802 -108.126 17.8825 -11.1712 -7.97209e-007 1.45827e-006 6.77979e-006 -7.43118 0.0579956 1.30125 8.6398e-006 -3.36313e-006 3.04659 -8.02922 -4.95144 -0.697683 172.151 3.22891 3.88527 -180 7.01572e-015 179.04 178.962 12.3021 179.553 -6.48256e-008 -1.62104e-006 0.10557 -18.0389 69.2351 20.5562 8.13649 25.2327 -3.48773 -172.289 0.495278 -2.69063 4.54188e-006 -4.6773e-006 -0.95344 -1.76773 -12.1046 0.352187 1.49666e-006 -1.14852e-006 -0.113182 19.0445 70.936 -22.1461 -8.13663 25.2348 3.48488 
55.1312 96.0994 8.58003 -0.525739 -3.51859 0.321842 0.507917 -1.43614 0.0515764 1.02316 1.12392 0.0540057 1.02318 2.76884 0.0368442 -0.942599 11.853 -7.28967 2.86436 3.81796 -7.42875 61.4745 -9.06128 -5.6709 108.596 20.6065 22.563 1.00106e-006 5.87165e-007 -4.80129e-006 4.48622 0.029381 -0.70295 -8.9391e-006 3.55545e-006 -3.04276 8.02965 -4.95141 0.697667 -63.274 -6.61164 4.29592 -108.114 17.8701 -11.1593 -7.97209e-007 1.45827e-006 6.77979e-006 -7.44215 0.0579941 1.29912 8.6398e-006 -3.36313e-006 3.04659 -8.02922 -4.95144 -0.697683 172.154 3.23197 3.88261 -180 7.01572e-015 179.04 178.963 12.3009 179.553 -6.48256e-008 -1.62104e-006 0.105366 -18.0349 69.2325 20.5538 8.13649 25.2327 -3.48773 -172.287 0.504578 -2.68928 4.54188e-006 -4.6773e-006 -0.953416 -1.76418 -12.1123 0.353004 1.49666e-006 -1.14852e-006 -0.113508 19.0443 70.9371 -22.1478 -8.13663 25.2348 3.48488 
